<?xml version="1.0" encoding="UTF-8" standalone="no"?>
<!-- Created with Inkscape (http://www.inkscape.org/) -->

<svg
   version="1.1"
   id="svg1"
   width="558.95337"
   height="358.09357"
   viewBox="0 0 558.95336 358.09356"
   sodipodi:docname="DAHLIA_ORIG.svg"
   inkscape:version="1.4.3 (1:1.4.3+202512261035+0d15f75042)"
   xmlns:inkscape="http://www.inkscape.org/namespaces/inkscape"
   xmlns:sodipodi="http://sodipodi.sourceforge.net/DTD/sodipodi-0.dtd"
   xmlns="http://www.w3.org/2000/svg"
   xmlns:svg="http://www.w3.org/2000/svg">
  <defs
     id="defs1" />
  <sodipodi:namedview
     id="namedview1"
     pagecolor="#ffffff"
     bordercolor="#666666"
     borderopacity="1.0"
     inkscape:showpageshadow="2"
     inkscape:pageopacity="0.0"
     inkscape:pagecheckerboard="0"
     inkscape:deskcolor="#d1d1d1"
     inkscape:zoom="2.0000001"
     inkscape:cx="503.74997"
     inkscape:cy="164.99999"
     inkscape:window-width="1920"
     inkscape:window-height="1012"
     inkscape:window-x="0"
     inkscape:window-y="0"
     inkscape:window-maximized="1"
     inkscape:current-layer="g1">
    <inkscape:page
       x="0"
       y="0"
       inkscape:label="2"
       id="page1"
       width="558.95337"
       height="358.09357"
       margin="0"
       bleed="0" />
  </sodipodi:namedview>
  <g
     id="g1"
     inkscape:groupmode="layer"
     inkscape:label="2"
     transform="translate(-415.14667,-37.621113)">
    <text
       id="text1367"
       xml:space="preserve"
       transform="matrix(-0.01720029,-1.3332224,1.3332224,-0.01720029,831.75467,174.58933)"><tspan
         id="tspan1367"
         style="font-style:italic;font-variant:normal;font-weight:300;font-size:1.49197px;font-family:Lato;writing-mode:lr-tb;fill:#211d1d;fill-opacity:1;fill-rule:nonzero;stroke:none"
         x="0"
         dx="0 -0.01420211 -0.05480621"
         y="0">Grain Line</tspan><tspan
         id="tspan1368"
         style="font-style:italic;font-variant:normal;font-weight:300;font-size:1.49197px;font-family:Lato;writing-mode:lr-tb;fill:#211d1d;fill-opacity:1;fill-rule:nonzero;stroke:none"
         x="-0.3219946"
         dx="0 -0.01420211 -0.05480621"
         y="88.372513">Grain Line</tspan></text>
    <g
       id="g42"
       transform="translate(-60.472447)">
      <path
         style="fill:none;fill-rule:evenodd;stroke:#fd12c4;stroke-width:0.2;stroke-linecap:round;stroke-linejoin:round;stroke-dasharray:none"
         d="m 416.12021,260.31348 45.6598,-4.17615"
         id="path1412" />
      <path
         style="fill:none;fill-rule:evenodd;stroke:#1812fd;stroke-width:0.2;stroke-linecap:round;stroke-linejoin:round;stroke-opacity:1"
         d="m 417.10001,77.473334 46.66,-0.129333"
         id="path1" />
      <path
         style="fill:none;fill-rule:evenodd;stroke:#1812fd;stroke-width:0.2;stroke-linecap:round;stroke-linejoin:round;stroke-opacity:1"
         d="m 463.76001,77.344001 -1.98,178.793329"
         id="path2" />
      <path
         style="fill:none;fill-rule:evenodd;stroke:#1812fd;stroke-width:0.2;stroke-linecap:round;stroke-linejoin:round;stroke-opacity:1"
         d="m 461.78001,256.13733 -1.09733,121.79999"
         id="path3" />
      <path
         style="fill:none;fill-rule:evenodd;stroke:#1812fd;stroke-width:0.2;stroke-linecap:round;stroke-linejoin:round;stroke-opacity:1"
         d="m 415.31334,384.33066 c 15.1586,0.1 36.91316,-4.52073 45.36934,-6.39334"
         id="path4"
         sodipodi:nodetypes="cc" />
      <path
         style="fill:none;fill-rule:evenodd;stroke:#1812fd;stroke-width:0.2;stroke-linecap:round;stroke-linejoin:round;stroke-opacity:1"
         d="M 415.31334,384.33066 416.0354,260.3311"
         id="path5" />
      <path
         style="fill:none;fill-rule:evenodd;stroke:#1812fd;stroke-width:0.2;stroke-linecap:round;stroke-linejoin:round;stroke-opacity:1"
         d="M 416.0223,260.33382 417.10001,77.473334"
         id="path6" />
    </g>
    <g
       id="g43"
       transform="translate(-43.464571)">
      <path
         id="path1048"
         d="M 0,0 C -59.39,3.6 -353.47,-12.13 -428.11,-36.41"
         style="fill:none;stroke:#be1c2d;stroke-width:2.5;stroke-linecap:round;stroke-linejoin:round;stroke-miterlimit:10;stroke-dasharray:none;stroke-opacity:1"
         transform="matrix(0.13333333,0,0,-0.13333333,538.30935,137.67601)" />
      <path
         id="path1296"
         d="M 0,0 1.42,59.98"
         style="fill:none;stroke:#00adef;stroke-width:2.5;stroke-linecap:round;stroke-linejoin:round;stroke-miterlimit:4;stroke-dasharray:none;stroke-opacity:1"
         transform="matrix(0.13333333,0,0,-0.13333333,499.60935,372.67067)" />
      <path
         id="path1297"
         d="M 0,0 45.68,1933.77"
         style="fill:none;stroke:#00adef;stroke-width:2.5;stroke-linecap:round;stroke-linejoin:round;stroke-miterlimit:4;stroke-dasharray:124.79, 124.79;stroke-dashoffset:0;stroke-opacity:1"
         transform="matrix(0.13333333,0,0,-0.13333333,500.19065,348.04)" />
      <path
         id="path1298"
         d="M 0,0 1.42,59.98"
         style="fill:none;stroke:#00adef;stroke-width:2.5;stroke-linecap:round;stroke-linejoin:round;stroke-miterlimit:4;stroke-dasharray:none;stroke-opacity:1"
         transform="matrix(0.13333333,0,0,-0.13333333,506.47735,81.88668)" />
      <path
         id="path1299"
         d="M 0,0 1.39,59.97"
         style="fill:none;stroke:#00adef;stroke-width:2.5;stroke-linecap:round;stroke-linejoin:round;stroke-miterlimit:4;stroke-dasharray:none;stroke-opacity:1"
         transform="matrix(0.13333333,0,0,-0.13333333,505.70267,370.94535)" />
      <path
         id="path1300"
         d="M 0,0 44.52,1924.39"
         style="fill:none;stroke:#00adef;stroke-width:2.5;stroke-linecap:round;stroke-linejoin:round;stroke-miterlimit:4;stroke-dasharray:124.19, 124.19;stroke-dashoffset:0;stroke-opacity:1"
         transform="matrix(0.13333333,0,0,-0.13333333,506.27067,346.39467)" />
      <path
         id="path1301"
         d="M 0,0 1.39,59.98"
         style="fill:none;stroke:#00adef;stroke-width:2.5;stroke-linecap:round;stroke-linejoin:round;stroke-miterlimit:4;stroke-dasharray:none;stroke-opacity:1"
         transform="matrix(0.13333333,0,0,-0.13333333,512.39867,81.532)" />
      <path
         id="path1353"
         d="M 0,0 -73.49,-1110.63"
         style="fill:none;stroke:#211d1d;stroke-width:2.5;stroke-linecap:round;stroke-linejoin:round;stroke-miterlimit:10;stroke-dasharray:none;stroke-opacity:1"
         transform="matrix(0.13333333,0,0,-0.13333333,504.94268,225.85068)" />
      <path
         id="path1354"
         d="M 0,0 -74.3,-1122.94"
         style="fill:none;stroke:#211d1d;stroke-width:2.5;stroke-linecap:round;stroke-linejoin:round;stroke-miterlimit:4;stroke-dasharray:none;stroke-opacity:1"
         transform="matrix(0.13333333,0,0,-0.13333333,515.028,73.41468)" />
      <path
         id="path1355"
         d="M 0,0 9.35,4.87 9.53,4.57 2.74,-9.72 C 1.28,-14.75 -0.18,-19.77 -1.64,-24.8 -2.43,-19.63 -3.21,-14.45 -4,-9.27 l -4.85,15.04 0.17,0.3"
         style="fill:#211d1d;fill-opacity:1;fill-rule:nonzero;stroke:none"
         transform="matrix(0.13333333,0,0,-0.13333333,505.16133,222.54397)" />
      <text
         id="text1361"
         xml:space="preserve"
         transform="matrix(0.10640116,-1.3290811,1.3290811,0.10640116,505.04533,217.96267)"><tspan
           id="tspan1361"
           style="font-style:italic;font-variant:normal;font-weight:300;font-size:1.49198px;font-family:Lato;writing-mode:lr-tb;fill:#211d1d;fill-opacity:1;fill-rule:nonzero;stroke:none"
           x="0"
           dx="0 -0.0142007 -0.054605111"
           y="0">Grain Line</tspan></text>
      <text
         id="text1402"
         xml:space="preserve"
         transform="matrix(1.330025,-0.09386843,0.09386843,1.330025,516.088,137.864)"><tspan
           id="tspan1402"
           style="font-variant:normal;font-weight:300;font-size:1.65797px;font-family:Lato;writing-mode:lr-tb;fill:#211d1d;fill-opacity:1;fill-rule:nonzero;stroke:none"
           x="0"
           dx="0 -0.01680351 0 -0.045610718"
           y="0">cording</tspan></text>
      <path
         style="fill:none;fill-rule:evenodd;stroke:#fd12c4;stroke-width:0.2;stroke-linecap:round;stroke-linejoin:round;stroke-dasharray:none"
         d="M 483.91334,256.13735 526.59199,252.208"
         id="path1413" />
      <path
         style="fill:none;fill-rule:evenodd;stroke:#1812fd;stroke-width:0.2;stroke-linecap:round;stroke-linejoin:round;stroke-opacity:1"
         d="m 470.72798,78.80933 c 33.32241,-7.247844 69.24866,-5.892828 77.292,-5.097333"
         id="path7"
         sodipodi:nodetypes="cc" />
      <path
         style="fill:none;fill-rule:evenodd;stroke:#1812fd;stroke-width:0.2;stroke-linecap:round;stroke-linejoin:round;stroke-opacity:1"
         d="m 526.59199,252.208 c 0.44194,-62.04862 16.56663,-138.36769 21.42799,-178.496003"
         id="path8"
         sodipodi:nodetypes="cc" />
      <path
         style="fill:none;fill-rule:evenodd;stroke:#1812fd;stroke-width:0.2;stroke-linecap:round;stroke-linejoin:round;stroke-opacity:1"
         d="M 483.91334,256.13735 C 487.09532,195.59133 483.63268,135.9713 470.72798,78.80933"
         id="path9"
         sodipodi:nodetypes="cc" />
      <path
         style="fill:none;fill-rule:evenodd;stroke:#1812fd;stroke-width:0.2;stroke-linecap:round;stroke-linejoin:round;stroke-opacity:1"
         d="m 526.59199,252.208 2.02666,112.24799"
         id="path10" />
      <path
         style="fill:none;fill-rule:evenodd;stroke:#1812fd;stroke-width:0.2;stroke-linecap:round;stroke-linejoin:round;stroke-opacity:1"
         d="m 483.91334,256.13735 c -1.94454,21.92031 -3.02136,121.83464 -3.02136,121.83464"
         id="path11"
         sodipodi:nodetypes="cc" />
      <path
         style="fill:none;fill-rule:evenodd;stroke:#1812fd;stroke-width:0.2;stroke-linecap:round;stroke-linejoin:round;stroke-opacity:1"
         d="m 528.61865,364.45599 -47.72667,13.516"
         id="path12" />
    </g>
    <g
       id="g44"
       transform="translate(-39.685043)">
      <path
         id="path1049"
         d="M 0,0 C -62.04,18.29 -358.4,30.98 -437.6,19.29"
         style="fill:none;stroke:#be1c2d;stroke-width:2.5;stroke-linecap:round;stroke-linejoin:round;stroke-miterlimit:10;stroke-dasharray:none;stroke-opacity:1"
         transform="matrix(0.13333333,0,0,-0.13333333,621.08399,139.69867)" />
      <path
         id="path1302"
         d="M 0,0 1.71,59.97"
         style="fill:none;stroke:#00adef;stroke-width:2.5;stroke-linecap:round;stroke-linejoin:round;stroke-miterlimit:4;stroke-dasharray:none;stroke-opacity:1"
         transform="matrix(0.13333333,0,0,-0.13333333,584.70131,359.828)" />
      <path
         id="path1303"
         d="M 0,0 53.14,1862.16"
         style="fill:none;stroke:#00adef;stroke-width:2.5;stroke-linecap:round;stroke-linejoin:round;stroke-miterlimit:4;stroke-dasharray:120.19, 120.19;stroke-dashoffset:0;stroke-opacity:1"
         transform="matrix(0.13333333,0,0,-0.13333333,585.38803,335.81335)" />
      <path
         id="path1304"
         d="M 0,0 1.71,59.98"
         style="fill:none;stroke:#00adef;stroke-width:2.5;stroke-linecap:round;stroke-linejoin:round;stroke-miterlimit:4;stroke-dasharray:none;stroke-opacity:1"
         transform="matrix(0.13333333,0,0,-0.13333333,592.70267,79.515987)" />
      <path
         id="path1305"
         d="M 0,0 1.71,59.97"
         style="fill:none;stroke:#00adef;stroke-width:2.5;stroke-linecap:round;stroke-linejoin:round;stroke-miterlimit:4;stroke-dasharray:none;stroke-opacity:1"
         transform="matrix(0.13333333,0,0,-0.13333333,590.42669,357.97735)" />
      <path
         id="path1306"
         d="M 0,0 52.57,1846.72"
         style="fill:none;stroke:#00adef;stroke-width:2.5;stroke-linecap:round;stroke-linejoin:round;stroke-miterlimit:4;stroke-dasharray:119.19, 119.19;stroke-dashoffset:0;stroke-opacity:1"
         transform="matrix(0.13333333,0,0,-0.13333333,591.10664,334.096)" />
      <path
         id="path1307"
         d="M 0,0 1.71,59.97"
         style="fill:none;stroke:#00adef;stroke-width:2.5;stroke-linecap:round;stroke-linejoin:round;stroke-miterlimit:4;stroke-dasharray:none;stroke-opacity:1"
         transform="matrix(0.13333333,0,0,-0.13333333,598.34264,79.922693)" />
      <path
         id="path1356"
         d="M 0,0 -146.31,-854.79"
         style="fill:none;stroke:#211d1d;stroke-width:2.5;stroke-linecap:round;stroke-linejoin:round;stroke-miterlimit:10;stroke-dasharray:none;stroke-opacity:1"
         transform="matrix(0.13333333,0,0,-0.13333333,587.72669,213.88936)" />
      <path
         id="path1357"
         d="M 0,0 -177.95,-1033.58"
         style="fill:none;stroke:#211d1d;stroke-width:2.5;stroke-linecap:round;stroke-linejoin:round;stroke-miterlimit:4;stroke-dasharray:none;stroke-opacity:1"
         transform="matrix(0.13333333,0,0,-0.13333333,611.91465,73.400027)" />
      <path
         id="path1358"
         d="M 0,0 9.81,3.87 9.96,3.54 1.71,-9.95 c -1.97,-4.85 -3.95,-9.7 -5.93,-14.56 -0.24,5.24 -0.48,10.47 -0.72,15.71 L -8.2,6.66 -7.99,6.94"
         style="fill:#211d1d;fill-opacity:1;fill-rule:nonzero;stroke:none"
         transform="matrix(0.13333333,0,0,-0.13333333,588.28932,210.62269)" />
      <text
         id="text1364"
         xml:space="preserve"
         transform="matrix(0.246523,-1.3103451,1.3103451,0.246523,588.64667,206.75333)"><tspan
           id="tspan1364"
           style="font-style:italic;font-variant:normal;font-weight:300;font-size:1.49206px;font-family:Lato;writing-mode:lr-tb;fill:#211d1d;fill-opacity:1;fill-rule:nonzero;stroke:none"
           x="0"
           dx="0 -0.01410148 -0.054804951"
           y="0">Grain Line</tspan></text>
      <text
         id="text1403"
         xml:space="preserve"
         transform="matrix(1.3330252,-0.02866577,0.02866577,1.3330252,577.516,135.95333)"><tspan
           id="tspan1403"
           style="font-variant:normal;font-weight:300;font-size:1.65805px;font-family:Lato;writing-mode:lr-tb;fill:#211d1d;fill-opacity:1;fill-rule:nonzero;stroke:none"
           x="0"
           dx="0 -0.01660539 0 -0.045712478"
           y="0">cording</tspan></text>
      <path
         style="fill:none;fill-rule:evenodd;stroke:#fd12c4;stroke-width:0.2;stroke-linecap:round;stroke-linejoin:round;stroke-dasharray:none"
         d="M 569.86402,252.34933 612.43335,247.984"
         id="path1414" />
      <path
         style="fill:none;fill-rule:evenodd;stroke:#1812fd;stroke-width:0.2;stroke-linecap:round;stroke-linejoin:round;stroke-opacity:1"
         d="m 554.24935,73.064004 c 14.875,-3 50.47733,-3.536001 77.47733,4.963999"
         id="path13"
         sodipodi:nodetypes="cc" />
      <path
         style="fill:none;fill-rule:evenodd;stroke:#1812fd;stroke-width:0.2;stroke-linecap:round;stroke-linejoin:round;stroke-opacity:1"
         d="m 612.43335,247.984 c 3.5,-93.375 9.13989,-107.60391 19.29333,-169.955997"
         id="path14"
         sodipodi:nodetypes="cc" />
      <path
         style="fill:none;fill-rule:evenodd;stroke:#1812fd;stroke-width:0.2;stroke-linecap:round;stroke-linejoin:round;stroke-opacity:1"
         d="m 569.86402,252.34933 c 0.5,-74.25 -15.61467,-179.285326 -15.61467,-179.285326"
         id="path15"
         sodipodi:nodetypes="cc" />
      <path
         style="fill:none;fill-rule:evenodd;stroke:#1812fd;stroke-width:0.2;stroke-linecap:round;stroke-linejoin:round;stroke-opacity:1"
         d="m 566.40668,364.24399 c 0.875,-5.25 3.20734,-88.76966 3.45734,-111.89466"
         id="path16"
         sodipodi:nodetypes="cc" />
      <path
         style="fill:none;fill-rule:evenodd;stroke:#1812fd;stroke-width:0.2;stroke-linecap:round;stroke-linejoin:round;stroke-opacity:1"
         d="M 612.94135,350.66133 612.43335,247.984"
         id="path17" />
      <path
         style="fill:none;fill-rule:evenodd;stroke:#1812fd;stroke-width:0.2;stroke-linecap:round;stroke-linejoin:round;stroke-opacity:1"
         d="m 566.40668,364.24399 c 17.76606,-3.27037 38.18197,-10.84262 46.53467,-13.58266"
         id="path18"
         sodipodi:nodetypes="cc" />
    </g>
    <g
       id="g46"
       transform="translate(-26.456695)">
      <path
         id="path1284"
         d="M 0,0 -0.75,59.98"
         style="fill:none;stroke:#00adef;stroke-width:2.5;stroke-linecap:round;stroke-linejoin:round;stroke-miterlimit:4;stroke-dasharray:none;stroke-opacity:1"
         transform="matrix(0.13333333,0,0,-0.13333333,741.07064,318.32532)" />
      <path
         id="path1285"
         d="M 0,0 -18.15,1455.96"
         style="fill:none;stroke:#00adef;stroke-width:2.5;stroke-linecap:round;stroke-linejoin:round;stroke-miterlimit:4;stroke-dasharray:126.62, 126.62;stroke-dashoffset:0;stroke-opacity:1"
         transform="matrix(0.13333333,0,0,-0.13333333,740.76003,293.44668)" />
      <path
         id="path1286"
         d="M 0,0 -0.75,59.99"
         style="fill:none;stroke:#00adef;stroke-width:2.5;stroke-linecap:round;stroke-linejoin:round;stroke-miterlimit:4;stroke-dasharray:none;stroke-opacity:1"
         transform="matrix(0.13333333,0,0,-0.13333333,738.23464,90.877307)" />
      <path
         id="path1287"
         d="M 0,0 -0.75,59.99"
         style="fill:none;stroke:#00adef;stroke-width:2.5;stroke-linecap:round;stroke-linejoin:round;stroke-miterlimit:4;stroke-dasharray:none;stroke-opacity:1"
         transform="matrix(0.13333333,0,0,-0.13333333,747.18001,317.73467)" />
      <path
         id="path1288"
         d="M 0,0 -18.13,1454.27"
         style="fill:none;stroke:#00adef;stroke-width:2.5;stroke-linecap:round;stroke-linejoin:round;stroke-miterlimit:4;stroke-dasharray:126.47, 126.47;stroke-dashoffset:0;stroke-opacity:1"
         transform="matrix(0.13333333,0,0,-0.13333333,746.86933,292.87467)" />
      <path
         id="path1289"
         d="M 0,0 -0.75,59.98"
         style="fill:none;stroke:#00adef;stroke-width:2.5;stroke-linecap:round;stroke-linejoin:round;stroke-miterlimit:4;stroke-dasharray:none;stroke-opacity:1"
         transform="matrix(0.13333333,0,0,-0.13333333,744.34668,90.541307)" />
      <path
         id="path1347"
         d="M 0,0 -131.43,746.48"
         style="fill:none;stroke:#211d1d;stroke-width:2.5;stroke-linecap:round;stroke-linejoin:round;stroke-miterlimit:4;stroke-dasharray:none;stroke-opacity:1"
         transform="matrix(0.13333333,0,0,-0.13333333,741.79336,182.968)" />
      <path
         id="path1348"
         d="M 0,0 -9.82,3.84 -9.97,3.5 -1.67,-9.96 c 1.99,-4.84 3.98,-9.68 5.98,-14.52 0.22,5.23 0.44,10.46 0.67,15.7 L 8.17,6.7 7.97,6.97"
         style="fill:#211d1d;fill-opacity:1;fill-rule:nonzero;stroke:none"
         transform="matrix(0.13333333,0,0,-0.13333333,741.68932,182.37997)" />
      <path
         id="path1349"
         d="M 0,0 -171.48,973.94"
         style="fill:none;stroke:#211d1d;stroke-width:2.5;stroke-linecap:round;stroke-linejoin:round;stroke-miterlimit:10;stroke-dasharray:none;stroke-opacity:1"
         transform="matrix(0.13333333,0,0,-0.13333333,765.128,315.50267)" />
      <text
         id="text1366"
         xml:space="preserve"
         transform="matrix(-0.21625768,-1.3156787,1.3156787,-0.21625768,740.11467,174.804)"><tspan
           id="tspan1366"
           style="font-style:italic;font-variant:normal;font-weight:300;font-size:1.49206px;font-family:Lato;writing-mode:lr-tb;fill:#211d1d;fill-opacity:1;fill-rule:nonzero;stroke:none"
           x="0"
           dx="0 -0.01380157 -0.05420661"
           y="0">Grain Line</tspan></text>
      <path
         style="fill:none;fill-rule:evenodd;stroke:#fd12c4;stroke-width:0.2;stroke-linecap:round;stroke-linejoin:round;stroke-dasharray:none"
         d="m 714.572,238.96132 57.44161,-9.30855"
         id="path1416" />
      <path
         style="fill:none;fill-rule:evenodd;stroke:#1812fd;stroke-width:0.2;stroke-linecap:round;stroke-linejoin:round;stroke-opacity:1"
         d="m 715.11467,83.78399 c 40.375,-1.125 54.75267,-3.368666 61.00267,-5.618666"
         id="path24"
         sodipodi:nodetypes="cc" />
      <path
         style="fill:none;fill-rule:evenodd;stroke:#1812fd;stroke-width:0.2;stroke-linecap:round;stroke-linejoin:round;stroke-opacity:1"
         d="m 772.01361,229.65277 c -3.8007,-27.13522 -0.46474,-105.68972 4.10373,-151.487446"
         id="path25"
         sodipodi:nodetypes="cc" />
      <path
         style="fill:none;fill-rule:evenodd;stroke:#1812fd;stroke-width:0.2;stroke-linecap:round;stroke-linejoin:round;stroke-opacity:1"
         d="m 714.572,238.96132 c 3.77773,-35.40685 1.11589,-111.42733 0.54267,-155.17733"
         id="path26"
         sodipodi:nodetypes="cc" />
      <path
         style="fill:none;fill-rule:evenodd;stroke:#1812fd;stroke-width:0.2;stroke-linecap:round;stroke-linejoin:round;stroke-opacity:1"
         d="m 785.63334,311.12931 c -3.375,-18.5 -12.74473,-70.97654 -13.61973,-81.47654"
         id="path27"
         sodipodi:nodetypes="cc" />
      <path
         style="fill:none;fill-rule:evenodd;stroke:#1812fd;stroke-width:0.2;stroke-linecap:round;stroke-linejoin:round;stroke-opacity:1"
         d="m 714.5707,238.96268 c -1.75,15.625 -9.31836,72.46897 -10.69336,81.34397"
         id="path28"
         sodipodi:nodetypes="cc" />
      <path
         style="fill:none;fill-rule:evenodd;stroke:#1812fd;stroke-width:0.2;stroke-linecap:round;stroke-linejoin:round;stroke-opacity:1"
         d="m 785.63334,311.12931 c -21.3125,5.6875 -44.37561,7.9465 -81.756,9.17734"
         id="path29"
         sodipodi:nodetypes="cc" />
    </g>
    <g
       id="g47"
       transform="translate(-18.897639)">
      <path
         id="path1308"
         d="M 0,0 -0.06,-60"
         style="fill:none;stroke:#00adef;stroke-width:2.5;stroke-linecap:round;stroke-linejoin:round;stroke-miterlimit:4;stroke-dasharray:none;stroke-opacity:1"
         transform="matrix(0.13333333,0,0,-0.13333333,832.90931,59.484013)" />
      <path
         id="path1309"
         d="M 0,0 -1.75,-1610.3"
         style="fill:none;stroke:#00adef;stroke-width:2.5;stroke-linecap:round;stroke-linejoin:round;stroke-miterlimit:4;stroke-dasharray:119.28, 119.28;stroke-dashoffset:0;stroke-opacity:1"
         transform="matrix(0.13333333,0,0,-0.13333333,832.88399,83.387987)" />
      <path
         id="path1310"
         d="M 0,0 -0.06,-60"
         style="fill:none;stroke:#00adef;stroke-width:2.5;stroke-linecap:round;stroke-linejoin:round;stroke-miterlimit:4;stroke-dasharray:none;stroke-opacity:1"
         transform="matrix(0.13333333,0,0,-0.13333333,832.64264,306.04668)" />
      <path
         id="path1311"
         d="M 0,0 0.03,-60"
         style="fill:none;stroke:#00adef;stroke-width:2.5;stroke-linecap:round;stroke-linejoin:round;stroke-miterlimit:4;stroke-dasharray:none;stroke-opacity:1"
         transform="matrix(0.13333333,0,0,-0.13333333,838.83731,56.584013)" />
      <path
         id="path1312"
         d="M 0,0 1.03,-1629.72"
         style="fill:none;stroke:#00adef;stroke-width:2.5;stroke-linecap:round;stroke-linejoin:round;stroke-miterlimit:4;stroke-dasharray:120.72, 120.72;stroke-dashoffset:0;stroke-opacity:1"
         transform="matrix(0.13333333,0,0,-0.13333333,838.85201,80.679973)" />
      <path
         id="path1313"
         d="M 0,0 0.04,-60"
         style="fill:none;stroke:#00adef;stroke-width:2.5;stroke-linecap:round;stroke-linejoin:round;stroke-miterlimit:4;stroke-dasharray:none;stroke-opacity:1"
         transform="matrix(0.13333333,0,0,-0.13333333,838.99467,306.02265)" />
      <path
         id="path1359"
         d="M 0,0 2.43,999.28"
         style="fill:none;stroke:#211d1d;stroke-width:2.5;stroke-linecap:round;stroke-linejoin:round;stroke-miterlimit:4;stroke-dasharray:none;stroke-opacity:1"
         transform="matrix(0.13333333,0,0,-0.13333333,831.91868,192.95335)" />
      <path
         id="path1360"
         d="M 0,0 -8.99,5.5 -9.2,5.21 -3.4,-9.5 c 1.11,-5.13 2.22,-10.25 3.34,-15.36 1.13,5.11 2.29,10.22 3.41,15.34 L 9.23,5.16 9.07,5.46"
         style="fill:#211d1d;fill-opacity:1;fill-rule:nonzero;stroke:none"
         transform="matrix(0.13333333,0,0,-0.13333333,831.91999,192.35603)" />
      <path
         id="path1361"
         d="M 0,0 2.16,887.81"
         style="fill:none;stroke:#211d1d;stroke-width:2.5;stroke-linecap:round;stroke-linejoin:round;stroke-miterlimit:10;stroke-dasharray:none;stroke-opacity:1"
         transform="matrix(0.13333333,0,0,-0.13333333,831.62403,314.04668)" />
      <path
         style="fill:none;fill-rule:evenodd;stroke:#fd12c4;stroke-width:0.2;stroke-linecap:round;stroke-linejoin:round;stroke-dasharray:none"
         d="m 802.99331,229.59202 60.112,-5.848"
         id="path1417" />
      <path
         style="fill:none;fill-rule:evenodd;stroke:#1812fd;stroke-width:0.2;stroke-linecap:round;stroke-linejoin:round;stroke-opacity:1"
         d="m 798.64264,78.358693 c 16.44023,-13.081475 67.8767,-33.513565 73.18,-35.281332"
         id="path30"
         sodipodi:nodetypes="cc" />
      <path
         style="fill:none;fill-rule:evenodd;stroke:#1812fd;stroke-width:0.2;stroke-linecap:round;stroke-linejoin:round;stroke-opacity:1"
         d="m 863.10531,223.74402 c -4.24264,-68.05903 8.187,-168.645844 8.71733,-180.666659"
         id="path31"
         sodipodi:nodetypes="cc" />
      <path
         style="fill:none;fill-rule:evenodd;stroke:#1812fd;stroke-width:0.2;stroke-linecap:round;stroke-linejoin:round;stroke-opacity:1"
         d="m 802.99331,229.59202 c 6.99112,-31.625 -1.52224,-121.8884 -4.35067,-151.233327"
         id="path32"
         sodipodi:nodetypes="cc" />
      <path
         style="fill:none;fill-rule:evenodd;stroke:#1812fd;stroke-width:0.2;stroke-linecap:round;stroke-linejoin:round;stroke-opacity:1"
         d="m 789.65197,310.94402 c 0,0 12.34134,-78.2895 13.34134,-81.352"
         id="path33"
         sodipodi:nodetypes="cc" />
      <path
         style="fill:none;fill-rule:evenodd;stroke:#1812fd;stroke-width:0.2;stroke-linecap:round;stroke-linejoin:round;stroke-opacity:1"
         d="m 876.16664,310.24002 c 0,0 -12.24883,-74.246 -13.06133,-86.496"
         id="path34"
         sodipodi:nodetypes="cc" />
      <path
         style="fill:none;fill-rule:evenodd;stroke:#1812fd;stroke-width:0.2;stroke-linecap:round;stroke-linejoin:round;stroke-opacity:1"
         d="m 789.65197,310.94402 c 27.35867,5.35998 66.03337,3.58646 86.51467,-0.704"
         id="path35"
         sodipodi:nodetypes="cc" />
    </g>
    <g
       id="g48">
      <path
         id="path1314"
         d="M 0,0 0.7,59.99"
         style="fill:none;stroke:#00adef;stroke-width:2.5;stroke-linecap:round;stroke-linejoin:round;stroke-miterlimit:4;stroke-dasharray:none;stroke-opacity:1"
         transform="matrix(0.13333333,0,0,-0.13333333,963.83731,323.69199)" />
      <path
         id="path1315"
         d="M 0,0 21.65,1845.67"
         style="fill:none;stroke:#00adef;stroke-width:2.5;stroke-linecap:round;stroke-linejoin:round;stroke-miterlimit:4;stroke-dasharray:119.08, 119.08;stroke-dashoffset:0;stroke-opacity:1"
         transform="matrix(0.13333333,0,0,-0.13333333,964.11732,299.81601)" />
      <path
         id="path1316"
         d="M 0,0 0.7,59.99"
         style="fill:none;stroke:#00adef;stroke-width:2.5;stroke-linecap:round;stroke-linejoin:round;stroke-miterlimit:4;stroke-dasharray:none;stroke-opacity:1"
         transform="matrix(0.13333333,0,0,-0.13333333,967.09733,45.787987)" />
      <path
         id="path1317"
         d="M 0,0 0.72,59.99"
         style="fill:none;stroke:#00adef;stroke-width:2.5;stroke-linecap:round;stroke-linejoin:round;stroke-miterlimit:4;stroke-dasharray:none;stroke-opacity:1"
         transform="matrix(0.13333333,0,0,-0.13333333,956.51197,322.63867)" />
      <path
         id="path1318"
         d="M 0,0 22.11,1838.48"
         style="fill:none;stroke:#00adef;stroke-width:2.5;stroke-linecap:round;stroke-linejoin:round;stroke-miterlimit:4;stroke-dasharray:118.62, 118.62;stroke-dashoffset:0;stroke-opacity:1"
         transform="matrix(0.13333333,0,0,-0.13333333,956.79733,298.82532)" />
      <path
         id="path1319"
         d="M 0,0 0.72,59.99"
         style="fill:none;stroke:#00adef;stroke-width:2.5;stroke-linecap:round;stroke-linejoin:round;stroke-miterlimit:4;stroke-dasharray:none;stroke-opacity:1"
         transform="matrix(0.13333333,0,0,-0.13333333,959.84135,45.787987)" />
      <path
         id="path1320"
         d="M 0,0 0.71,59.99"
         style="fill:none;stroke:#00adef;stroke-width:2.5;stroke-linecap:round;stroke-linejoin:round;stroke-miterlimit:4;stroke-dasharray:none;stroke-opacity:1"
         transform="matrix(0.13333333,0,0,-0.13333333,950.06003,322.69065)" />
      <path
         id="path1321"
         d="M 0,0 21.94,1838.32"
         style="fill:none;stroke:#00adef;stroke-width:2.5;stroke-linecap:round;stroke-linejoin:round;stroke-miterlimit:4;stroke-dasharray:118.61, 118.61;stroke-dashoffset:0;stroke-opacity:1"
         transform="matrix(0.13333333,0,0,-0.13333333,950.34401,298.87735)" />
      <path
         id="path1322"
         d="M 0,0 0.72,59.99"
         style="fill:none;stroke:#00adef;stroke-width:2.5;stroke-linecap:round;stroke-linejoin:round;stroke-miterlimit:4;stroke-dasharray:none;stroke-opacity:1"
         transform="matrix(0.13333333,0,0,-0.13333333,953.36269,45.86136)" />
      <path
         id="path1362"
         d="M 0,0 1.97,1110.15"
         style="fill:none;stroke:#211d1d;stroke-width:2.5;stroke-linecap:round;stroke-linejoin:round;stroke-miterlimit:4;stroke-dasharray:none;stroke-opacity:1"
         transform="matrix(0.13333333,0,0,-0.13333333,949.77597,185.88265)" />
      <path
         id="path1363"
         d="m 0,0 -9,5.5 -0.19,-0.31 5.8,-14.7 c 1.11,-5.12 2.23,-10.24 3.36,-15.36 1.12,5.12 2.26,10.24 3.39,15.35 L 9.22,5.16 9.07,5.46"
         style="fill:#211d1d;fill-opacity:1;fill-rule:nonzero;stroke:none"
         transform="matrix(0.13333333,0,0,-0.13333333,949.77597,185.28532)" />
      <path
         id="path1364"
         d="M 0,0 1.78,1005.28"
         style="fill:none;stroke:#211d1d;stroke-width:2.5;stroke-linecap:round;stroke-linejoin:round;stroke-miterlimit:10;stroke-dasharray:none;stroke-opacity:1"
         transform="matrix(0.13333333,0,0,-0.13333333,949.53333,322.63867)" />
      <path
         style="fill:none;fill-rule:evenodd;stroke:#fd12c4;stroke-width:0.2;stroke-linecap:round;stroke-linejoin:round;stroke-dasharray:none"
         d="m 896.79065,223.98266 75.54812,3.6753"
         id="path1418" />
      <path
         style="fill:none;fill-rule:evenodd;stroke:#1812fd;stroke-width:0.2;stroke-linecap:round;stroke-linejoin:round;stroke-opacity:1"
         d="m 973.93198,38.022666 c 0,0 -53.02033,-1.899333 -85.14533,5.350667"
         id="path36"
         sodipodi:nodetypes="cc" />
      <path
         style="fill:none;fill-rule:evenodd;stroke:#1812fd;stroke-width:0.2;stroke-linecap:round;stroke-linejoin:round;stroke-opacity:1"
         d="m 896.79065,223.98266 c 6.27557,-41.01219 -4.29169,-133.94028 -8.004,-180.609327"
         id="path37"
         sodipodi:nodetypes="cc" />
      <path
         style="fill:none;fill-rule:evenodd;stroke:#1812fd;stroke-width:0.2;stroke-linecap:round;stroke-linejoin:round;stroke-opacity:1"
         d="M 972.33127,227.65759 973.93198,38.022666"
         id="path38" />
      <path
         style="fill:none;fill-rule:evenodd;stroke:#1812fd;stroke-width:0.2;stroke-linecap:round;stroke-linejoin:round;stroke-opacity:1"
         d="m 896.79065,223.98266 -14.13333,86.24666"
         id="path39" />
      <path
         style="fill:none;fill-rule:evenodd;stroke:#1812fd;stroke-width:0.2;stroke-linecap:round;stroke-linejoin:round;stroke-opacity:1"
         d="m 971.52665,324.32266 0.79467,-96.66555"
         id="path40" />
      <path
         style="fill:none;fill-rule:evenodd;stroke:#1812fd;stroke-width:0.2;stroke-linecap:round;stroke-linejoin:round;stroke-opacity:1"
         d="m 882.65732,310.22932 c 28.28427,10.6066 88.86933,14.09334 88.86933,14.09334"
         id="path41"
         sodipodi:nodetypes="cc" />
    </g>
    <g
       id="g45"
       transform="translate(-35.905515)">
      <path
         id="path1290"
         d="M 0,0 2.04,59.96"
         style="fill:none;stroke:#00adef;stroke-width:2.5;stroke-linecap:round;stroke-linejoin:round;stroke-miterlimit:4;stroke-dasharray:none;stroke-opacity:1"
         transform="matrix(0.13333333,0,0,-0.13333333,657.07597,339.25465)" />
      <path
         id="path1291"
         d="M 0,0 55.52,1631.7"
         style="fill:none;stroke:#00adef;stroke-width:2.5;stroke-linecap:round;stroke-linejoin:round;stroke-miterlimit:4;stroke-dasharray:120.94, 120.94;stroke-dashoffset:0;stroke-opacity:1"
         transform="matrix(0.13333333,0,0,-0.13333333,657.89603,315.14401)" />
      <path
         id="path1292"
         d="M 0,0 2.04,59.96"
         style="fill:none;stroke:#00adef;stroke-width:2.5;stroke-linecap:round;stroke-linejoin:round;stroke-miterlimit:4;stroke-dasharray:none;stroke-opacity:1"
         transform="matrix(0.13333333,0,0,-0.13333333,665.57331,89.526653)" />
      <path
         id="path1293"
         d="M 0,0 2.04,59.96"
         style="fill:none;stroke:#00adef;stroke-width:2.5;stroke-linecap:round;stroke-linejoin:round;stroke-miterlimit:4;stroke-dasharray:none;stroke-opacity:1"
         transform="matrix(0.13333333,0,0,-0.13333333,663.60397,337.05599)" />
      <path
         id="path1294"
         d="M 0,0 54.81,1610.5"
         style="fill:none;stroke:#00adef;stroke-width:2.5;stroke-linecap:round;stroke-linejoin:round;stroke-miterlimit:4;stroke-dasharray:119.37, 119.37;stroke-dashoffset:0;stroke-opacity:1"
         transform="matrix(0.13333333,0,0,-0.13333333,664.41732,313.15599)" />
      <path
         id="path1295"
         d="M 0,0 2.04,59.96"
         style="fill:none;stroke:#00adef;stroke-width:2.5;stroke-linecap:round;stroke-linejoin:round;stroke-miterlimit:4;stroke-dasharray:none;stroke-opacity:1"
         transform="matrix(0.13333333,0,0,-0.13333333,671.99603,90.469307)" />
      <path
         id="path1350"
         d="M 0,0 -44.31,772.74"
         style="fill:none;stroke:#211d1d;stroke-width:2.5;stroke-linecap:round;stroke-linejoin:round;stroke-miterlimit:4;stroke-dasharray:none;stroke-opacity:1"
         transform="matrix(0.13333333,0,0,-0.13333333,664.83464,183.45603)" />
      <path
         id="path1351"
         d="M 0,0 -9.3,4.96 -9.48,4.63 -2.82,-9.69 c 1.41,-5.06 2.84,-10.1 4.25,-15.15 0.84,5.19 1.66,10.36 2.5,15.53 l 4.98,15 -0.18,0.29"
         style="fill:#211d1d;fill-opacity:1;fill-rule:nonzero;stroke:none"
         transform="matrix(0.13333333,0,0,-0.13333333,664.8,182.85869)" />
      <path
         id="path1352"
         d="M 0,0 -63.38,1105.28"
         style="fill:none;stroke:#211d1d;stroke-width:2.5;stroke-linecap:round;stroke-linejoin:round;stroke-miterlimit:10;stroke-dasharray:none;stroke-opacity:1"
         transform="matrix(0.13333333,0,0,-0.13333333,673.44135,333.54133)" />
      <text
         id="text1365"
         xml:space="preserve"
         transform="matrix(-0.06240027,-1.3318724,1.3318724,-0.06240027,663.72267,173.496)"><tspan
           id="tspan1365"
           style="font-style:italic;font-variant:normal;font-weight:300;font-size:1.49199px;font-family:Lato;writing-mode:lr-tb;fill:#211d1d;fill-opacity:1;fill-rule:nonzero;stroke:none"
           x="0"
           dx="0 -0.0139009 -0.054805402"
           y="0">Grain Line</tspan></text>
      <path
         style="fill:none;fill-rule:evenodd;stroke:#fd12c4;stroke-width:0.2;stroke-linecap:round;stroke-linejoin:round;stroke-dasharray:none"
         d="m 633.74533,248.35601 55.69464,-8.18137"
         id="path1415" />
      <path
         style="fill:none;fill-rule:evenodd;stroke:#1812fd;stroke-width:0.2;stroke-linecap:round;stroke-linejoin:round;stroke-opacity:1"
         d="m 640.8613,76.677311 c 19.09188,5.038136 48.57506,8.061282 57.59067,8.68"
         id="path19"
         sodipodi:nodetypes="cc" />
      <path
         style="fill:none;fill-rule:evenodd;stroke:#1812fd;stroke-width:0.2;stroke-linecap:round;stroke-linejoin:round;stroke-opacity:1"
         d="m 689.43997,240.17464 c -2.25,-39.375 4.012,-103.37983 9.012,-154.817329"
         id="path20"
         sodipodi:nodetypes="cc" />
      <path
         style="fill:none;fill-rule:evenodd;stroke:#1812fd;stroke-width:0.2;stroke-linecap:round;stroke-linejoin:round;stroke-opacity:1"
         d="m 640.8613,76.677311 c -2.47487,25.190679 -2.67403,128.870639 -7.11597,171.678699"
         id="path21"
         sodipodi:nodetypes="cc" />
      <path
         style="fill:none;fill-rule:evenodd;stroke:#1812fd;stroke-width:0.2;stroke-linecap:round;stroke-linejoin:round;stroke-opacity:1"
         d="m 689.43997,240.17464 c 1.67938,17.05895 11.484,81.17866 11.484,81.17866"
         id="path22"
         sodipodi:nodetypes="cc" />
      <path
         style="fill:none;fill-rule:evenodd;stroke:#1812fd;stroke-width:0.2;stroke-linecap:round;stroke-linejoin:round;stroke-opacity:1"
         d="m 633.74533,248.35601 c 0,0 -9.21086,90.18779 -10.77336,101.62529"
         id="path23"
         sodipodi:nodetypes="cc" />
      <path
         style="fill:none;fill-rule:evenodd;stroke:#1812fd;stroke-width:0.2;stroke-linecap:round;stroke-linejoin:round"
         d="m 622.97197,349.9813 c 27.75394,-7.42462 68.93639,-22.97115 77.952,-28.628"
         id="path42"
         sodipodi:nodetypes="cc" />
    </g>
  </g>
</svg>
